<svg id="Icons" enable-background="new 0 0 512 512" height="512" viewBox="0 0 512 512" width="512" xmlns="http://www.w3.org/2000/svg" xmlns:xlink="http://www.w3.org/1999/xlink"><linearGradient id="SVGID_1_" gradientUnits="userSpaceOnUse" x1="256" x2="256" y1="512" y2="0"><stop offset="0" stop-color="#22b7eb"/><stop offset="1" stop-color="#1e74bb"/></linearGradient><linearGradient id="SVGID_2_" gradientUnits="userSpaceOnUse" x1="256" x2="256" y1="512" y2="337.591"><stop offset="0" stop-color="#22b7eb"/><stop offset=".8346" stop-color="#1e74bb"/></linearGradient><linearGradient id="SVGID_3_" gradientUnits="userSpaceOnUse" x1="256" x2="256" y1="413.979" y2="98.021"><stop offset="0" stop-color="#263886"/><stop offset="1" stop-color="#0e203a"/></linearGradient><linearGradient id="SVGID_4_" gradientTransform="matrix(0 -1 1 0 1160 -2968)" gradientUnits="userSpaceOnUse" x1="-3274.214" x2="-3153.786" y1="-904" y2="-904"><stop offset="0" stop-color="#fff"/><stop offset=".2013" stop-color="#f3f9f9"/><stop offset=".6958" stop-color="#dbecee"/><stop offset="1" stop-color="#d2e7ea"/></linearGradient><g><circle cx="256" cy="256" fill="url(#SVGID_1_)" r="256"/><path d="m413.979 337.591h-315.958l27.302 138.57c38.255 22.755 82.935 35.839 130.677 35.839s92.422-13.084 130.677-35.839z" fill="url(#SVGID_2_)"/><path d="m336.786 98.021h-161.572c-42.632 0-77.193 34.56-77.193 77.193v161.572c0 42.632 34.56 77.193 77.193 77.193h161.572c42.632 0 77.193-34.56 77.193-77.193v-161.572c0-42.633-34.56-77.193-77.193-77.193z" fill="url(#SVGID_3_)"/><path d="m356.429 286.214c0 5.119-1.953 10.237-5.858 14.142-7.811 7.811-20.474 7.811-28.284 0l-66.287-66.286-66.287 66.287c-7.811 7.811-20.474 7.811-28.284 0s-7.811-20.474 0-28.284l80.429-80.429c7.811-7.811 20.474-7.811 28.284 0l80.429 80.429c3.905 3.905 5.858 9.023 5.858 14.141z" fill="url(#SVGID_4_)"/></g></svg>